<svg id="Ebene_1" data-name="Ebene 1" xmlns="http://www.w3.org/2000/svg" viewBox="0 0 1913.04 1155.28"><title>teste</title><polygon points="832.3 708.07 819.88 708.07 807.45 708.07 795.03 708.07 782.61 708.07 770.19 708.07 757.76 708.07 757.76 720.49 757.76 732.92 757.76 745.34 745.34 745.34 732.92 745.34 720.5 745.34 720.5 757.76 720.5 770.18 720.5 782.61 708.07 782.61 695.65 782.61 683.23 782.61 683.23 795.03 683.23 807.45 683.23 819.87 670.81 819.87 658.38 819.87 645.96 819.87 645.96 832.3 645.96 844.72 645.96 857.14 633.54 857.14 621.12 857.14 608.7 857.14 608.7 869.56 608.7 881.99 608.7 894.41 596.27 894.41 583.85 894.41 571.43 894.41 571.43 906.83 571.43 919.25 571.43 931.67 571.43 944.1 583.85 944.1 596.27 944.1 608.7 944.1 608.7 931.67 608.7 919.25 608.7 906.83 621.12 906.83 633.54 906.83 645.96 906.83 645.96 919.25 645.96 931.67 645.96 944.1 633.54 944.1 621.12 944.1 608.7 944.1 608.7 956.52 608.7 968.94 608.7 981.36 621.12 981.36 633.54 981.36 645.96 981.36 658.38 981.36 658.38 968.94 658.38 956.52 658.38 944.1 670.81 944.1 683.23 944.1 695.65 944.1 695.65 931.67 695.65 919.25 695.65 906.83 708.07 906.83 720.5 906.83 732.92 906.83 732.92 894.41 732.92 881.99 732.92 869.56 745.34 869.56 757.76 869.56 770.19 869.56 770.19 857.14 770.19 844.72 770.19 832.3 782.61 832.3 795.03 832.3 807.45 832.3 807.45 819.87 807.45 807.45 807.45 795.03 819.88 795.03 832.3 795.03 844.72 795.03 844.72 782.61 844.72 770.18 844.72 757.76 844.72 745.34 844.72 732.92 844.72 720.49 844.72 708.07 832.3 708.07" fill="#fff"/><polygon points="546.58 944.1 534.16 944.1 534.16 956.52 534.16 968.94 534.16 981.36 546.58 981.36 559.01 981.36 571.43 981.36 571.43 968.94 571.43 956.52 571.43 944.1 559.01 944.1 546.58 944.1" fill="#fff"/><polygon points="534.16 919.25 534.16 906.83 534.16 894.41 534.16 881.99 534.16 869.56 534.16 857.14 521.74 857.14 509.32 857.14 496.89 857.14 484.47 857.14 484.47 869.56 484.47 881.99 484.47 894.41 484.47 906.83 484.47 919.25 484.47 931.67 484.47 944.1 496.89 944.1 509.32 944.1 521.74 944.1 534.16 944.1 534.16 931.67 534.16 919.25" fill="#fff"/><polygon points="509.32 981.36 496.89 981.36 484.47 981.36 484.47 993.79 484.47 1006.21 484.47 1018.63 484.47 1031.05 496.89 1031.05 509.32 1031.05 521.74 1031.05 534.16 1031.05 534.16 1018.63 534.16 1006.21 534.16 993.79 534.16 981.36 521.74 981.36 509.32 981.36" fill="#fff"/><path d="M540.37,1204.97V1167.7h37.27v-99.38H540.37v-37.27H453.42v37.27H416.15v-37.27H366.46v12.43H329.19v-12.43H279.5v37.27H242.24v-37.27H155.28V1167.7h37.27v37.27H540.37Zm-298.13-62.12v-24.84H453.42v37.27H242.24Z" transform="translate(-43.48 -422.36)" fill="#fff"/><polygon points="335.4 819.87 322.98 819.87 310.56 819.87 298.14 819.87 285.71 819.87 273.29 819.87 260.87 819.87 248.45 819.87 236.02 819.87 236.02 832.3 236.02 844.72 236.02 857.14 248.45 857.14 260.87 857.14 273.29 857.14 273.29 869.56 273.29 881.99 273.29 894.41 285.71 894.41 298.14 894.41 310.56 894.41 322.98 894.41 322.98 881.99 322.98 869.56 322.98 857.14 335.4 857.14 347.83 857.14 360.25 857.14 360.25 844.72 360.25 832.3 360.25 819.87 347.83 819.87 335.4 819.87" fill="#fff"/><polygon points="298.14 993.79 285.71 993.79 273.29 993.79 273.29 1006.21 273.29 1018.63 273.29 1031.05 285.71 1031.05 298.14 1031.05 310.56 1031.05 322.98 1031.05 322.98 1018.63 322.98 1006.21 322.98 993.79 310.56 993.79 298.14 993.79" fill="#fff"/><polygon points="124.22 857.14 111.8 857.14 111.8 869.56 111.8 881.99 111.8 894.41 99.38 894.41 86.96 894.41 74.53 894.41 74.53 906.83 74.53 919.25 74.53 931.67 74.53 944.1 74.53 956.52 74.53 968.94 74.53 981.36 74.53 993.79 86.96 993.79 99.38 993.79 111.8 993.79 111.8 981.36 111.8 968.94 111.8 956.52 111.8 944.1 124.22 944.1 136.65 944.1 149.07 944.1 149.07 931.67 149.07 919.25 149.07 906.83 149.07 894.41 149.07 881.99 149.07 869.56 149.07 857.14 136.65 857.14 124.22 857.14" fill="#fff"/><polygon points="521.74 608.69 509.32 608.69 496.89 608.69 496.89 621.12 496.89 633.54 496.89 645.96 509.32 645.96 521.74 645.96 534.16 645.96 534.16 633.54 534.16 621.12 534.16 608.69 521.74 608.69" fill="#92acbe"/><polygon points="459.63 819.87 447.2 819.87 434.78 819.87 422.36 819.87 409.94 819.87 397.51 819.87 385.09 819.87 372.67 819.87 360.25 819.87 360.25 832.3 360.25 844.72 360.25 857.14 347.83 857.14 335.4 857.14 322.98 857.14 322.98 869.56 322.98 881.99 322.98 894.41 310.56 894.41 298.14 894.41 285.71 894.41 273.29 894.41 273.29 881.99 273.29 869.56 273.29 857.14 260.87 857.14 248.45 857.14 236.02 857.14 236.02 844.72 236.02 832.3 236.02 819.87 223.6 819.87 211.18 819.87 198.76 819.87 186.33 819.87 173.91 819.87 161.49 819.87 149.07 819.87 149.07 832.3 149.07 844.72 149.07 857.14 161.49 857.14 173.91 857.14 186.33 857.14 198.76 857.14 198.76 869.56 198.76 881.99 198.76 894.41 198.76 906.83 198.76 919.25 198.76 931.67 198.76 944.1 198.76 956.52 198.76 968.94 198.76 981.36 198.76 993.79 211.18 993.79 223.6 993.79 236.02 993.79 248.45 993.79 260.87 993.79 273.29 993.79 285.71 993.79 298.14 993.79 310.56 993.79 322.98 993.79 335.4 993.79 347.83 993.79 360.25 993.79 372.67 993.79 385.09 993.79 397.51 993.79 409.94 993.79 422.36 993.79 434.78 993.79 447.2 993.79 447.2 981.36 447.2 968.94 447.2 956.52 447.2 944.1 447.2 931.67 447.2 919.25 447.2 906.83 447.2 894.41 447.2 881.99 447.2 869.56 447.2 857.14 459.63 857.14 472.05 857.14 484.47 857.14 484.47 844.72 484.47 832.3 484.47 819.87 472.05 819.87 459.63 819.87" fill="#92acbe"/><polygon points="347.83 608.69 360.25 608.69 372.67 608.69 372.67 596.27 372.67 583.85 372.67 571.43 372.67 559 372.67 546.58 385.09 546.58 397.51 546.58 409.94 546.58 409.94 534.16 409.94 521.74 409.94 509.31 409.94 496.89 422.36 496.89 434.78 496.89 447.2 496.89 447.2 484.47 447.2 472.05 447.2 459.63 447.2 447.2 447.2 434.78 447.2 422.36 434.78 422.36 422.36 422.36 409.94 422.36 409.94 434.78 409.94 447.2 409.94 459.63 397.51 459.63 385.09 459.63 372.67 459.63 360.25 459.63 360.25 472.05 360.25 484.47 360.25 496.89 347.83 496.89 335.4 496.89 322.98 496.89 322.98 509.31 322.98 521.74 322.98 534.16 322.98 546.58 322.98 559 322.98 571.43 322.98 583.85 322.98 596.27 322.98 608.69 335.4 608.69 347.83 608.69" fill="#92acbe"/><polygon points="186.33 496.89 198.76 496.89 198.76 509.31 198.76 521.74 198.76 534.16 198.76 546.58 211.18 546.58 223.6 546.58 236.02 546.58 236.02 559 236.02 571.43 236.02 583.85 236.02 596.27 236.02 608.69 248.45 608.69 260.87 608.69 273.29 608.69 285.71 608.69 285.71 596.27 285.71 583.85 285.71 571.43 285.71 559 285.71 546.58 285.71 534.16 285.71 521.74 285.71 509.31 285.71 496.89 273.29 496.89 260.87 496.89 248.45 496.89 248.45 484.47 248.45 472.05 248.45 459.63 236.02 459.63 223.6 459.63 211.18 459.63 198.76 459.63 198.76 447.2 198.76 434.78 198.76 422.36 186.33 422.36 173.91 422.36 161.49 422.36 161.49 434.78 161.49 447.2 161.49 459.63 161.49 472.05 161.49 484.47 161.49 496.89 173.91 496.89 186.33 496.89" fill="#92acbe"/><polygon points="86.96 608.69 74.53 608.69 74.53 621.12 74.53 633.54 74.53 645.96 86.96 645.96 99.38 645.96 111.8 645.96 111.8 633.54 111.8 621.12 111.8 608.69 99.38 608.69 86.96 608.69" fill="#92acbe"/><polygon points="1900.62 149.07 1888.2 149.07 1875.78 149.07 1863.35 149.07 1850.93 149.07 1838.51 149.07 1838.51 136.64 1838.51 124.22 1838.51 111.8 1838.51 99.38 1826.09 99.38 1813.66 99.38 1801.24 99.38 1801.24 86.95 1801.24 74.53 1801.24 62.11 1788.82 62.11 1776.4 62.11 1763.97 62.11 1751.55 62.11 1739.13 62.11 1726.71 62.11 1714.29 62.11 1701.86 62.11 1689.44 62.11 1677.02 62.11 1664.6 62.11 1652.17 62.11 1639.75 62.11 1627.33 62.11 1614.91 62.11 1614.91 74.53 1614.91 86.95 1614.91 99.38 1602.48 99.38 1590.06 99.38 1577.64 99.38 1577.64 111.8 1577.64 124.22 1577.64 136.64 1577.64 149.07 1565.22 149.07 1552.79 149.07 1540.37 149.07 1540.37 161.49 1540.37 173.91 1540.37 186.33 1552.79 186.33 1565.22 186.33 1577.64 186.33 1577.64 198.76 1577.64 211.18 1577.64 223.6 1590.06 223.6 1602.48 223.6 1614.91 223.6 1627.33 223.6 1639.75 223.6 1652.17 223.6 1652.17 211.18 1652.17 198.76 1652.17 186.33 1664.6 186.33 1677.02 186.33 1689.44 186.33 1689.44 198.76 1689.44 211.18 1689.44 223.6 1701.86 223.6 1714.29 223.6 1726.71 223.6 1739.13 223.6 1751.55 223.6 1763.97 223.6 1776.4 223.6 1788.82 223.6 1801.24 223.6 1813.66 223.6 1826.09 223.6 1838.51 223.6 1850.93 223.6 1863.35 223.6 1875.78 223.6 1875.78 211.18 1875.78 198.76 1875.78 186.33 1888.2 186.33 1900.62 186.33 1913.04 186.33 1913.04 173.91 1913.04 161.49 1913.04 149.07 1900.62 149.07" fill="#00447a"/><polygon points="1689.44 434.78 1677.02 434.78 1677.02 422.36 1677.02 409.94 1677.02 397.51 1664.6 397.51 1652.17 397.51 1639.75 397.51 1639.75 385.09 1639.75 372.67 1639.75 360.25 1627.33 360.25 1614.91 360.25 1602.48 360.25 1590.06 360.25 1577.64 360.25 1565.22 360.25 1552.79 360.25 1552.79 372.67 1552.79 385.09 1552.79 397.51 1540.37 397.51 1527.95 397.51 1515.53 397.51 1515.53 385.09 1515.53 372.67 1515.53 360.25 1503.11 360.25 1490.68 360.25 1478.26 360.25 1465.84 360.25 1465.84 347.82 1465.84 335.4 1465.84 322.98 1465.84 310.56 1453.42 310.56 1440.99 310.56 1428.57 310.56 1428.57 298.13 1428.57 285.71 1428.57 273.29 1416.15 273.29 1403.73 273.29 1391.3 273.29 1391.3 260.87 1391.3 248.45 1391.3 236.02 1378.88 236.02 1366.46 236.02 1354.04 236.02 1341.61 236.02 1329.19 236.02 1316.77 236.02 1304.35 236.02 1291.92 236.02 1279.5 236.02 1267.08 236.02 1254.66 236.02 1254.66 248.45 1254.66 260.87 1254.66 273.29 1242.24 273.29 1229.81 273.29 1217.39 273.29 1217.39 285.71 1217.39 298.13 1217.39 310.56 1204.97 310.56 1192.55 310.56 1180.12 310.56 1180.12 322.98 1180.12 335.4 1180.12 347.82 1180.12 360.25 1180.12 372.67 1180.12 385.09 1180.12 397.51 1167.7 397.51 1155.28 397.51 1142.86 397.51 1130.43 397.51 1118.01 397.51 1118.01 409.94 1118.01 422.36 1118.01 434.78 1105.59 434.78 1093.17 434.78 1080.74 434.78 1080.74 422.36 1080.74 409.94 1080.74 397.51 1068.32 397.51 1055.9 397.51 1043.48 397.51 1043.48 385.09 1043.48 372.67 1043.48 360.25 1031.06 360.25 1018.63 360.25 1006.21 360.25 1006.21 372.67 1006.21 385.09 1006.21 397.51 993.79 397.51 981.37 397.51 968.94 397.51 956.52 397.51 956.52 409.94 956.52 422.36 956.52 434.78 944.1 434.78 931.68 434.78 919.25 434.78 919.25 447.2 919.25 459.63 919.25 472.05 919.25 484.47 919.25 496.89 919.25 509.31 919.25 521.74 931.68 521.74 944.1 521.74 956.52 521.74 956.52 534.16 956.52 546.58 956.52 559 968.94 559 981.37 559 993.79 559 1006.21 559 1006.21 571.43 1006.21 583.85 1006.21 596.27 1018.63 596.27 1031.06 596.27 1043.48 596.27 1055.9 596.27 1068.32 596.27 1080.74 596.27 1093.17 596.27 1105.59 596.27 1118.01 596.27 1130.43 596.27 1142.86 596.27 1155.28 596.27 1167.7 596.27 1180.12 596.27 1192.55 596.27 1204.97 596.27 1217.39 596.27 1229.81 596.27 1242.24 596.27 1254.66 596.27 1267.08 596.27 1279.5 596.27 1291.92 596.27 1304.35 596.27 1316.77 596.27 1329.19 596.27 1341.61 596.27 1354.04 596.27 1366.46 596.27 1378.88 596.27 1391.3 596.27 1403.73 596.27 1416.15 596.27 1428.57 596.27 1428.57 583.85 1428.57 571.43 1428.57 559 1440.99 559 1453.42 559 1465.84 559 1465.84 571.43 1465.84 583.85 1465.84 596.27 1478.26 596.27 1490.68 596.27 1503.11 596.27 1515.53 596.27 1527.95 596.27 1540.37 596.27 1552.79 596.27 1565.22 596.27 1577.64 596.27 1590.06 596.27 1602.48 596.27 1614.91 596.27 1627.33 596.27 1639.75 596.27 1639.75 583.85 1639.75 571.43 1639.75 559 1652.17 559 1664.6 559 1677.02 559 1677.02 546.58 1677.02 534.16 1677.02 521.74 1689.44 521.74 1701.86 521.74 1714.29 521.74 1714.29 509.31 1714.29 496.89 1714.29 484.47 1714.29 472.05 1714.29 459.63 1714.29 447.2 1714.29 434.78 1701.86 434.78 1689.44 434.78" fill="#00447a"/><polygon points="931.68 198.76 944.1 198.76 956.52 198.76 968.94 198.76 981.37 198.76 993.79 198.76 1006.21 198.76 1006.21 186.33 1006.21 173.91 1006.21 161.49 1018.63 161.49 1031.06 161.49 1043.48 161.49 1043.48 173.91 1043.48 186.33 1043.48 198.76 1055.9 198.76 1068.32 198.76 1080.74 198.76 1080.74 186.33 1080.74 173.91 1080.74 161.49 1093.17 161.49 1105.59 161.49 1118.01 161.49 1118.01 149.07 1118.01 136.64 1118.01 124.22 1105.59 124.22 1093.17 124.22 1080.74 124.22 1068.32 124.22 1055.9 124.22 1043.48 124.22 1043.48 111.8 1043.48 99.38 1043.48 86.95 1043.48 74.53 1031.06 74.53 1018.63 74.53 1006.21 74.53 1006.21 62.11 1006.21 49.69 1006.21 37.26 993.79 37.26 981.37 37.26 968.94 37.26 956.52 37.26 956.52 24.84 956.52 12.42 956.52 0 944.1 0 931.68 0 919.25 0 919.25 12.42 919.25 24.84 919.25 37.26 906.83 37.26 894.41 37.26 881.99 37.26 869.56 37.26 857.14 37.26 844.72 37.26 832.3 37.26 819.88 37.26 819.88 49.69 819.88 62.11 819.88 74.53 807.45 74.53 795.03 74.53 782.61 74.53 782.61 86.95 782.61 99.38 782.61 111.8 782.61 124.22 770.19 124.22 757.76 124.22 745.34 124.22 745.34 136.64 745.34 149.07 745.34 161.49 757.76 161.49 770.19 161.49 782.61 161.49 782.61 173.91 782.61 186.33 782.61 198.76 795.03 198.76 807.45 198.76 819.88 198.76 832.3 198.76 844.72 198.76 857.14 198.76 869.56 198.76 881.99 198.76 894.41 198.76 906.83 198.76 919.25 198.76 931.68 198.76" fill="#00447a"/><polygon points="857.14 670.81 844.72 670.81 832.3 670.81 819.88 670.81 807.45 670.81 795.03 670.81 782.61 670.81 770.19 670.81 757.76 670.81 757.76 683.23 757.76 695.65 757.76 708.07 770.19 708.07 782.61 708.07 795.03 708.07 807.45 708.07 819.88 708.07 832.3 708.07 844.72 708.07 844.72 720.49 844.72 732.92 844.72 745.34 844.72 757.76 844.72 770.18 844.72 782.61 844.72 795.03 857.14 795.03 869.56 795.03 881.99 795.03 881.99 782.61 881.99 770.18 881.99 757.76 881.99 745.34 881.99 732.92 881.99 720.49 881.99 708.07 881.99 695.65 881.99 683.23 881.99 670.81 869.56 670.81 857.14 670.81" fill="#00447a"/><polygon points="819.88 795.03 807.45 795.03 807.45 807.45 807.45 819.87 807.45 832.3 819.88 832.3 832.3 832.3 844.72 832.3 844.72 819.87 844.72 807.45 844.72 795.03 832.3 795.03 819.88 795.03" fill="#00447a"/><polygon points="782.61 832.3 770.19 832.3 770.19 844.72 770.19 857.14 770.19 869.56 782.61 869.56 795.03 869.56 807.45 869.56 807.45 857.14 807.45 844.72 807.45 832.3 795.03 832.3 782.61 832.3" fill="#00447a"/><polygon points="745.34 869.56 732.92 869.56 732.92 881.99 732.92 894.41 732.92 906.83 745.34 906.83 757.76 906.83 770.19 906.83 770.19 894.41 770.19 881.99 770.19 869.56 757.76 869.56 745.34 869.56" fill="#00447a"/><polygon points="745.34 745.34 757.76 745.34 757.76 732.92 757.76 720.49 757.76 708.07 745.34 708.07 732.92 708.07 720.5 708.07 720.5 720.49 720.5 732.92 720.5 745.34 732.92 745.34 745.34 745.34" fill="#00447a"/><polygon points="708.07 906.83 695.65 906.83 695.65 919.25 695.65 931.67 695.65 944.1 708.07 944.1 720.5 944.1 732.92 944.1 732.92 931.67 732.92 919.25 732.92 906.83 720.5 906.83 708.07 906.83" fill="#00447a"/><polygon points="708.07 782.61 720.5 782.61 720.5 770.18 720.5 757.76 720.5 745.34 708.07 745.34 695.65 745.34 683.23 745.34 683.23 757.76 683.23 770.18 683.23 782.61 695.65 782.61 708.07 782.61" fill="#00447a"/><polygon points="670.81 944.1 658.38 944.1 658.38 956.52 658.38 968.94 658.38 981.36 645.96 981.36 633.54 981.36 621.12 981.36 608.7 981.36 608.7 968.94 608.7 956.52 608.7 944.1 596.27 944.1 583.85 944.1 571.43 944.1 571.43 956.52 571.43 968.94 571.43 981.36 559.01 981.36 546.58 981.36 534.16 981.36 534.16 993.79 534.16 1006.21 534.16 1018.63 546.58 1018.63 559.01 1018.63 571.43 1018.63 583.85 1018.63 596.27 1018.63 608.7 1018.63 621.12 1018.63 633.54 1018.63 645.96 1018.63 658.38 1018.63 670.81 1018.63 683.23 1018.63 695.65 1018.63 695.65 1006.21 695.65 993.79 695.65 981.36 695.65 968.94 695.65 956.52 695.65 944.1 683.23 944.1 670.81 944.1" fill="#00447a"/><polygon points="670.81 819.87 683.23 819.87 683.23 807.45 683.23 795.03 683.23 782.61 670.81 782.61 658.38 782.61 645.96 782.61 645.96 795.03 645.96 807.45 645.96 819.87 658.38 819.87 670.81 819.87" fill="#00447a"/><polygon points="633.54 944.1 645.96 944.1 645.96 931.67 645.96 919.25 645.96 906.83 633.54 906.83 621.12 906.83 608.7 906.83 608.7 919.25 608.7 931.67 608.7 944.1 621.12 944.1 633.54 944.1" fill="#00447a"/><polygon points="633.54 857.14 645.96 857.14 645.96 844.72 645.96 832.3 645.96 819.87 633.54 819.87 621.12 819.87 608.7 819.87 608.7 832.3 608.7 844.72 608.7 857.14 621.12 857.14 633.54 857.14" fill="#00447a"/><polygon points="534.16 881.99 534.16 894.41 534.16 906.83 534.16 919.25 534.16 931.67 534.16 944.1 546.58 944.1 559.01 944.1 571.43 944.1 571.43 931.67 571.43 919.25 571.43 906.83 571.43 894.41 583.85 894.41 596.27 894.41 608.7 894.41 608.7 881.99 608.7 869.56 608.7 857.14 596.27 857.14 583.85 857.14 571.43 857.14 559.01 857.14 546.58 857.14 534.16 857.14 534.16 869.56 534.16 881.99" fill="#00447a"/><polygon points="534.16 956.52 534.16 944.1 521.74 944.1 509.32 944.1 496.89 944.1 484.47 944.1 484.47 931.67 484.47 919.25 484.47 906.83 484.47 894.41 484.47 881.99 484.47 869.56 484.47 857.14 472.05 857.14 459.63 857.14 447.2 857.14 447.2 869.56 447.2 881.99 447.2 894.41 447.2 906.83 447.2 919.25 447.2 931.67 447.2 944.1 447.2 956.52 447.2 968.94 447.2 981.36 447.2 993.79 434.78 993.79 422.36 993.79 409.94 993.79 397.51 993.79 385.09 993.79 372.67 993.79 360.25 993.79 347.83 993.79 335.4 993.79 322.98 993.79 322.98 1006.21 322.98 1018.63 322.98 1031.05 310.56 1031.05 298.14 1031.05 285.71 1031.05 273.29 1031.05 273.29 1018.63 273.29 1006.21 273.29 993.79 260.87 993.79 248.45 993.79 236.02 993.79 223.6 993.79 211.18 993.79 198.76 993.79 198.76 981.36 198.76 968.94 198.76 956.52 198.76 944.1 198.76 931.67 198.76 919.25 198.76 906.83 198.76 894.41 198.76 881.99 198.76 869.56 198.76 857.14 186.33 857.14 173.91 857.14 161.49 857.14 149.07 857.14 149.07 869.56 149.07 881.99 149.07 894.41 149.07 906.83 149.07 919.25 149.07 931.67 149.07 944.1 136.65 944.1 124.22 944.1 111.8 944.1 111.8 956.52 111.8 968.94 111.8 981.36 111.8 993.79 99.38 993.79 86.96 993.79 74.53 993.79 74.53 981.36 74.53 968.94 74.53 956.52 74.53 944.1 74.53 931.67 74.53 919.25 74.53 906.83 74.53 894.41 62.11 894.41 49.69 894.41 37.27 894.41 37.27 906.83 37.27 919.25 37.27 931.67 37.27 944.1 37.27 956.52 37.27 968.94 37.27 981.36 37.27 993.79 37.27 1006.21 37.27 1018.63 37.27 1031.05 49.69 1031.05 62.11 1031.05 74.53 1031.05 86.96 1031.05 99.38 1031.05 111.8 1031.05 124.22 1031.05 136.65 1031.05 149.07 1031.05 149.07 1043.48 149.07 1055.9 149.07 1068.32 149.07 1080.74 149.07 1093.17 149.07 1105.59 149.07 1118.01 149.07 1130.43 149.07 1142.86 149.07 1155.28 161.49 1155.28 173.91 1155.28 186.33 1155.28 198.76 1155.28 211.18 1155.28 223.6 1155.28 236.02 1155.28 248.45 1155.28 260.87 1155.28 273.29 1155.28 273.29 1142.86 273.29 1130.43 273.29 1118.01 273.29 1105.59 285.71 1105.59 298.14 1105.59 310.56 1105.59 322.98 1105.59 335.4 1105.59 347.83 1105.59 360.25 1105.59 372.67 1105.59 372.67 1118.01 372.67 1130.43 372.67 1142.86 372.67 1155.28 385.09 1155.28 397.51 1155.28 409.94 1155.28 422.36 1155.28 434.78 1155.28 447.2 1155.28 459.63 1155.28 472.05 1155.28 484.47 1155.28 484.47 1142.86 484.47 1130.43 484.47 1118.01 484.47 1105.59 484.47 1093.17 484.47 1080.74 484.47 1068.32 496.89 1068.32 509.32 1068.32 521.74 1068.32 534.16 1068.32 534.16 1055.9 534.16 1043.48 534.16 1031.05 521.74 1031.05 509.32 1031.05 496.89 1031.05 484.47 1031.05 484.47 1018.63 484.47 1006.21 484.47 993.79 484.47 981.36 496.89 981.36 509.32 981.36 521.74 981.36 534.16 981.36 534.16 968.94 534.16 956.52" fill="#00447a"/><polygon points="223.6 732.92 236.02 732.92 248.45 732.92 260.87 732.92 273.29 732.92 285.71 732.92 298.14 732.92 310.56 732.92 322.98 732.92 335.4 732.92 347.83 732.92 360.25 732.92 372.67 732.92 385.09 732.92 397.51 732.92 409.94 732.92 409.94 720.49 409.94 708.07 409.94 695.65 397.51 695.65 385.09 695.65 372.67 695.65 360.25 695.65 347.83 695.65 335.4 695.65 322.98 695.65 310.56 695.65 298.14 695.65 285.71 695.65 273.29 695.65 260.87 695.65 248.45 695.65 236.02 695.65 223.6 695.65 211.18 695.65 198.76 695.65 198.76 708.07 198.76 720.49 198.76 732.92 211.18 732.92 223.6 732.92" fill="#00447a"/><polygon points="136.65 857.14 149.07 857.14 149.07 844.72 149.07 832.3 149.07 819.87 161.49 819.87 173.91 819.87 186.33 819.87 198.76 819.87 211.18 819.87 223.6 819.87 236.02 819.87 248.45 819.87 260.87 819.87 273.29 819.87 285.71 819.87 298.14 819.87 310.56 819.87 322.98 819.87 335.4 819.87 347.83 819.87 360.25 819.87 372.67 819.87 385.09 819.87 397.51 819.87 409.94 819.87 422.36 819.87 434.78 819.87 447.2 819.87 459.63 819.87 472.05 819.87 484.47 819.87 484.47 832.3 484.47 844.72 484.47 857.14 496.89 857.14 509.32 857.14 521.74 857.14 534.16 857.14 534.16 844.72 534.16 832.3 534.16 819.87 521.74 819.87 509.32 819.87 496.89 819.87 496.89 807.45 496.89 795.03 496.89 782.61 484.47 782.61 472.05 782.61 459.63 782.61 447.2 782.61 434.78 782.61 422.36 782.61 409.94 782.61 397.51 782.61 385.09 782.61 372.67 782.61 360.25 782.61 347.83 782.61 335.4 782.61 322.98 782.61 310.56 782.61 298.14 782.61 285.71 782.61 273.29 782.61 260.87 782.61 248.45 782.61 236.02 782.61 223.6 782.61 211.18 782.61 198.76 782.61 186.33 782.61 173.91 782.61 161.49 782.61 149.07 782.61 149.07 770.18 149.07 757.76 149.07 745.34 136.65 745.34 124.22 745.34 111.8 745.34 111.8 732.92 111.8 720.49 111.8 708.07 111.8 695.65 111.8 683.23 111.8 670.81 111.8 658.38 111.8 645.96 99.38 645.96 86.96 645.96 74.53 645.96 74.53 658.38 74.53 670.81 74.53 683.23 74.53 695.65 74.53 708.07 74.53 720.49 74.53 732.92 74.53 745.34 74.53 757.76 74.53 770.18 74.53 782.61 74.53 795.03 74.53 807.45 86.96 807.45 99.38 807.45 111.8 807.45 111.8 819.87 111.8 832.3 111.8 844.72 111.8 857.14 124.22 857.14 136.65 857.14" fill="#00447a"/><polygon points="99.38 894.41 111.8 894.41 111.8 881.99 111.8 869.56 111.8 857.14 99.38 857.14 86.96 857.14 74.53 857.14 74.53 869.56 74.53 881.99 74.53 894.41 86.96 894.41 99.38 894.41" fill="#00447a"/><polygon points="74.53 621.12 74.53 608.69 86.96 608.69 99.38 608.69 111.8 608.69 124.22 608.69 136.65 608.69 149.07 608.69 161.49 608.69 173.91 608.69 186.33 608.69 198.76 608.69 198.76 621.12 198.76 633.54 198.76 645.96 211.18 645.96 223.6 645.96 236.02 645.96 236.02 633.54 236.02 621.12 236.02 608.69 236.02 596.27 236.02 583.85 236.02 571.43 236.02 559 236.02 546.58 223.6 546.58 211.18 546.58 198.76 546.58 198.76 534.16 198.76 521.74 198.76 509.31 198.76 496.89 186.33 496.89 173.91 496.89 161.49 496.89 161.49 484.47 161.49 472.05 161.49 459.63 161.49 447.2 161.49 434.78 161.49 422.36 173.91 422.36 186.33 422.36 198.76 422.36 198.76 434.78 198.76 447.2 198.76 459.63 211.18 459.63 223.6 459.63 236.02 459.63 248.45 459.63 248.45 472.05 248.45 484.47 248.45 496.89 260.87 496.89 273.29 496.89 285.71 496.89 285.71 509.31 285.71 521.74 285.71 534.16 285.71 546.58 285.71 559 285.71 571.43 285.71 583.85 285.71 596.27 285.71 608.69 285.71 621.12 298.14 621.12 310.56 621.12 322.98 621.12 322.98 608.69 322.98 596.27 322.98 583.85 322.98 571.43 322.98 559 322.98 546.58 322.98 534.16 322.98 521.74 322.98 509.31 322.98 496.89 335.4 496.89 347.83 496.89 360.25 496.89 360.25 484.47 360.25 472.05 360.25 459.63 372.67 459.63 385.09 459.63 397.51 459.63 409.94 459.63 409.94 447.2 409.94 434.78 409.94 422.36 422.36 422.36 434.78 422.36 447.2 422.36 447.2 434.78 447.2 447.2 447.2 459.63 447.2 472.05 447.2 484.47 447.2 496.89 434.78 496.89 422.36 496.89 409.94 496.89 409.94 509.31 409.94 521.74 409.94 534.16 409.94 546.58 397.51 546.58 385.09 546.58 372.67 546.58 372.67 559 372.67 571.43 372.67 583.85 372.67 596.27 372.67 608.69 372.67 621.12 372.67 633.54 372.67 645.96 385.09 645.96 397.51 645.96 409.94 645.96 409.94 633.54 409.94 621.12 409.94 608.69 422.36 608.69 434.78 608.69 447.2 608.69 459.63 608.69 472.05 608.69 484.47 608.69 496.89 608.69 509.32 608.69 521.74 608.69 534.16 608.69 534.16 621.12 534.16 633.54 534.16 645.96 534.16 658.38 534.16 670.81 534.16 683.23 534.16 695.65 534.16 708.07 534.16 720.49 534.16 732.92 534.16 745.34 521.74 745.34 509.32 745.34 496.89 745.34 496.89 757.76 496.89 770.18 496.89 782.61 509.32 782.61 521.74 782.61 534.16 782.61 546.58 782.61 559.01 782.61 571.43 782.61 571.43 770.18 571.43 757.76 571.43 745.34 571.43 732.92 571.43 720.49 571.43 708.07 571.43 695.65 571.43 683.23 571.43 670.81 571.43 658.38 571.43 645.96 571.43 633.54 571.43 621.12 571.43 608.69 571.43 596.27 571.43 583.85 571.43 571.43 571.43 559 571.43 546.58 571.43 534.16 583.85 534.16 596.27 534.16 608.7 534.16 608.7 521.74 608.7 509.31 608.7 496.89 608.7 484.47 608.7 472.05 608.7 459.63 608.7 447.2 608.7 434.78 608.7 422.36 608.7 409.94 596.27 409.94 583.85 409.94 571.43 409.94 571.43 397.51 571.43 385.09 571.43 372.67 571.43 360.25 571.43 347.82 571.43 335.4 559.01 335.4 546.58 335.4 534.16 335.4 521.74 335.4 521.74 322.98 521.74 310.56 521.74 298.13 521.74 285.71 509.32 285.71 496.89 285.71 484.47 285.71 472.05 285.71 472.05 273.29 472.05 260.87 472.05 248.45 459.63 248.45 447.2 248.45 434.78 248.45 422.36 248.45 409.94 248.45 397.51 248.45 397.51 236.02 397.51 223.6 397.51 211.18 385.09 211.18 372.67 211.18 360.25 211.18 347.83 211.18 347.83 198.76 347.83 186.33 347.83 173.91 335.4 173.91 322.98 173.91 310.56 173.91 298.14 173.91 285.71 173.91 273.29 173.91 260.87 173.91 248.45 173.91 248.45 186.33 248.45 198.76 248.45 211.18 236.02 211.18 223.6 211.18 211.18 211.18 198.76 211.18 198.76 223.6 198.76 236.02 198.76 248.45 186.33 248.45 173.91 248.45 161.49 248.45 149.07 248.45 136.65 248.45 124.22 248.45 124.22 260.87 124.22 273.29 124.22 285.71 111.8 285.71 99.38 285.71 86.96 285.71 74.53 285.71 74.53 298.13 74.53 310.56 74.53 322.98 74.53 335.4 62.11 335.4 49.69 335.4 37.27 335.4 37.27 347.82 37.27 360.25 37.27 372.67 37.27 385.09 37.27 397.51 37.27 409.94 24.84 409.94 12.42 409.94 0 409.94 0 422.36 0 434.78 0 447.2 0 459.63 0 472.05 0 484.47 0 496.89 0 509.31 0 521.74 0 534.16 12.42 534.16 24.84 534.16 37.27 534.16 37.27 546.58 37.27 559 37.27 571.43 37.27 583.85 37.27 596.27 37.27 608.69 37.27 621.12 37.27 633.54 37.27 645.96 49.69 645.96 62.11 645.96 74.53 645.96 74.53 633.54 74.53 621.12" fill="#00447a"/></svg>